<?xml version="1.0" encoding="utf-8"?>
<!-- Generator: Adobe Illustrator 22.1.0, SVG Export Plug-In . SVG Version: 6.00 Build 0)  -->
<svg version="1.1" id="Layer_1" xmlns="http://www.w3.org/2000/svg" xmlns:xlink="http://www.w3.org/1999/xlink" x="0px" y="0px"
	 viewBox="0 0 598.6 173.2" style="enable-background:new 0 0 598.6 173.2;" xml:space="preserve">
<style type="text/css">
	.st0{fill:url(#SVGID_1_);}
	.st1{fill:#2E353C;}
</style>
<linearGradient id="SVGID_1_" gradientUnits="userSpaceOnUse" x1="104.161" y1="515.5338" x2="182.1958" y2="515.5338" gradientTransform="matrix(1 0 0 1 0 -432)">
	<stop  offset="2.371540e-02" style="stop-color:#FF0053"/>
	<stop  offset="0.3992" style="stop-color:#FD3C30"/>
	<stop  offset="0.8055" style="stop-color:#FC780E"/>
	<stop  offset="1" style="stop-color:#FB8F00"/>
</linearGradient>
<path class="st0" d="M138.7,104c-5-3.4-9.8-7.1-14.4-11.2l-1.5-1.4l-1,1.8c-1.1,2.1-2.1,4.3-2.6,6.6c-1.2,8.2,6,9.4,12.6,8.9
	c-2.7,1.1-5.6,1.9-8.3,2.3c-4.3,0.6-9.1,0.1-12.4-3.1c-6.6-6.3-3-18.2,0.4-25.1l0.6-1.2l-1-0.8c-2.2-1.7-4.5-3.5-7-5
	c2.1-0.5,4.2-0.4,6.4,0.3l2.3,1.1c10.3,5.1,20.9,11.6,30.8,17.6l0.1,0.1c3.9,2.1,9,3.8,13.5,2.6c3.1-0.9,5.5-3.2,6-6.5
	c0.1-0.4,0.1-0.8,0.1-1.3c0-5.7-13.1-20.5-17.2-25.2l-1.4-1.6l-1.3,1.7c-3.1,4.5-4.9,7.2-8.5,11.3c-1.2,1.4,8.1,11.1,9.3,12.7
	c-5.3-3.6-20.2-14.1-26-16.8c8.4-11.7,18.5-21.8,26.6-33.7c4.1,7.3,9.9,14,15.3,20.3c8.1,9.3,19.2,21.2,21.4,33.7
	c3.5,19.6-11.8,22.5-27.6,18.8l-3.4-0.8l1.5,3.1c2.6,5.3,6.9,8.4,12.4,9.9v5.4h-38.4v-5.3c7.3-2.3,12.7-8.4,14.2-16l5.9,1.3
	l-5.6-3.5L138.7,104L138.7,104z"/>
<g>
	<g>
		<path class="st1" d="M205.3,77.7c0.3-0.8,1.4-1.5,2.2-1.5h10.9c0.8,0,1.9,0.7,2.2,1.5l11.6,28.8c0.1,0.2,0.1,0.3,0.1,0.5
			c0,0.5-0.4,1-1.1,1h-9.4c-0.8,0-1.9-0.7-2.2-1.5l-1.4-4.1h-11.2l-1.5,4.1c-0.2,0.6-1.3,1.5-2.2,1.5h-9.1c-0.6,0-1.1-0.4-1.1-1
			c0-0.2,0.1-0.3,0.1-0.5L205.3,77.7z M215.7,94.8l-2.9-8.4l-3,8.4H215.7z"/>
		<path class="st1" d="M231.5,77.9c0-0.8,0.7-1.6,1.6-1.6h9.8c0.8,0,1.6,0.7,1.6,1.6v16.3c0,2.7,1.4,4.4,3.9,4.4s3.9-1.7,3.9-4.4
			V77.9c0-0.8,0.7-1.6,1.6-1.6h9.8c0.8,0,1.6,0.7,1.6,1.6v16.2c0,8.5-6.8,14.3-17,14.3c-10.2,0-17-5.8-17-14.3L231.5,77.9
			L231.5,77.9z"/>
		<path class="st1" d="M267.3,77.9c0-0.9,0.7-1.6,1.6-1.6c5.8,0,10.1-0.3,18.4-0.3c9,0,15.8,4.6,15.8,10.7c0,4-3.1,7.5-7.7,9.3
			l9.4,10.8c0.5,0.6,0.3,1.3-0.5,1.3h-13.6c-0.8,0-2-0.7-2.4-1.5l-4.8-9.4h-3.4v10.9h-11.1c-0.8,0-1.6-0.7-1.6-1.6L267.3,77.9
			L267.3,77.9z M288.2,88.8c0.9,0,1.6-0.7,1.6-1.5c0-0.9-0.8-1.6-1.8-1.6c-2.9,0-7.2,0.2-8,0.2v2.7
			C280.6,88.5,285.2,88.8,288.2,88.8z M312.2,77.7c0.4-0.9,1.3-1.5,2.2-1.5h10.9c1,0,1.9,0.6,2.2,1.5l11.6,28.8
			c0.3,0.8-0.1,1.5-1,1.5h-9.4c-1,0-1.9-0.6-2.2-1.5l-1.4-4.1c-5.7,0-11.1,0.1-15.4,4.5c-0.5,0.5-1.5,0.6-2-0.1l-4-4.6
			c-0.7-0.8-0.8-1.8-0.4-2.7L312.2,77.7z M322.6,94.8l-2.9-8.4l-3.2,9C317.9,94.9,320,94.8,322.6,94.8z"/>
	</g>
	<g>
		<path class="st1" d="M353,92.2c-0.8-2.6-2.1-4.5-4.8-4.5c-1.6,0-2.9,1.1-2.9,2.9c0,2,1.5,2.9,3.9,4c3.7,1.6,5.8,3.1,5.8,6.2
			c0,4.2-3.8,6.3-7.4,6.3c-2.3,0-4.5-0.8-5.4-1.3c-0.2-1.3-0.7-3.9-0.8-5.4l1.3-0.2c0.8,2.9,2.4,5.4,5.6,5.4c1.7,0,3.3-1.2,3.3-3.1
			c0-2-1.2-3.1-3.7-4.2c-2.9-1.4-5.8-2.8-5.8-6.3c0-3.3,2.9-5.8,7.2-5.8c1.9,0,3.5,0.4,4.5,0.6c0.1,1.1,0.4,3.9,0.7,5L353,92.2z"/>
		<path class="st1" d="M375.8,88.1c-2.3,0.4-2.8,0.7-4,3.3c-1.1,2.6-2.3,5.6-5.5,13.5c-2.9,7.2-3.8,10.1-4.5,12.4
			c-0.3,0.9-0.8,1.2-1.4,1.2c-1.5,0-2.8-1-2.8-2.2c0-0.6,0.3-1,1-1.6c1.5-1.1,2.5-2.2,3.1-3.4c1-1.9,1.6-3.5,1.9-4.1
			c0.2-0.7,0.2-1.1-0.1-1.9c-1.7-5.2-4.2-10.7-5.6-14c-1-2.5-1.4-3.1-3.9-3.4v-1.2h9.2v1.2c-2.1,0.3-2.3,0.8-1.7,2.5l4.4,11.2
			c1.3-3.1,3.1-8.2,4-11c0.5-1.7,0.2-2.2-2.4-2.6v-1.2h8.3L375.8,88.1L375.8,88.1z"/>
		<path class="st1" d="M386.4,92.2c-0.8-2.6-2.1-4.5-4.8-4.5c-1.6,0-2.9,1.1-2.9,2.9c0,2,1.5,2.9,3.9,4c3.7,1.6,5.8,3.1,5.8,6.2
			c0,4.2-3.8,6.3-7.4,6.3c-2.3,0-4.5-0.8-5.4-1.3c-0.2-1.3-0.7-3.9-0.8-5.4l1.3-0.2c0.8,2.9,2.4,5.4,5.6,5.4c1.7,0,3.3-1.2,3.3-3.1
			c0-2-1.2-3.1-3.7-4.2c-2.9-1.4-5.8-2.8-5.8-6.3c0-3.3,2.9-5.8,7.2-5.8c1.9,0,3.5,0.4,4.5,0.6c0.1,1.1,0.4,3.9,0.7,5L386.4,92.2z"
			/>
		<path class="st1" d="M397.3,106.7c-0.8,0.4-1.5,0.6-2,0.6c-2.9,0-4.5-1.7-4.5-5.4V88.7h-3.1l-0.2-0.5l1.2-1.3h2.1v-3.8
			c0.9-0.9,2.2-2.1,3.1-3l0.7,0.1c-0.1,1.9-0.1,4.5-0.1,6.7h5.2c0.4,0.4,0.3,1.5-0.3,1.9h-4.9v11.6c0,3.6,1.5,4.4,2.6,4.4
			c1.1,0,2.1-0.4,2.8-0.7l0.4,1.2L397.3,106.7z"/>
		<path class="st1" d="M415.5,102.9c-2.9,3.6-6.1,4.4-7.5,4.4c-5.6,0-8.9-4.5-8.9-9.7c0-3.1,1.1-5.9,2.9-8c1.9-2.1,4.4-3.3,6.8-3.3
			c3.9,0,6.9,3.4,6.9,7c-0.1,0.9-0.2,1.3-0.9,1.5c-0.9,0.2-6.7,0.6-12.1,0.8c-0.1,6.1,3.6,8.6,6.8,8.6c1.9,0,3.6-0.8,5.3-2.3
			L415.5,102.9z M407.7,88c-2.1,0-4.1,2-4.7,5.6c2.6,0,5.1,0,7.7-0.1c0.8,0,1.1-0.2,1.1-0.9C411.8,90.2,410.3,88,407.7,88z"/>
		<path class="st1" d="M440.7,106.8v-1.3c2.7-0.3,3-0.4,3-3.6v-7.6c0-3.2-1.1-5.3-3.9-5.3c-1.7,0-3.3,0.9-5,2.3
			c0.1,0.5,0.1,1.1,0.1,2v8.8c0,2.8,0.4,3.1,2.9,3.4v1.3H428v-1.3c2.8-0.3,3.2-0.4,3.2-3.4v-7.8c0-3.4-1-5.2-3.8-5.2
			c-1.8,0-3.6,1.2-5,2.3v10.7c0,3,0.3,3.2,2.9,3.4v1.3h-9.7v-1.3c3-0.3,3.3-0.4,3.3-3.4v-9.4c0-2.9-0.2-3.1-2.7-3.5V88
			c2.1-0.3,4.2-0.9,6.3-1.8c0,1.1,0,2.6,0,3.6c0.9-0.7,1.9-1.5,3.4-2.3c1.1-0.7,2.1-1.2,3.6-1.2c2.2,0,4,1.4,5,3.7
			c1.3-1,2.5-1.7,3.6-2.6c1-0.7,2.3-1.2,3.6-1.2c3.5,0,5.7,2.6,5.7,7v8.8c0,3.1,0.3,3.2,2.8,3.4v1.3L440.7,106.8L440.7,106.8z"/>
		<path class="st1" d="M461.6,92.2c-0.8-2.6-2.1-4.5-4.8-4.5c-1.6,0-2.9,1.1-2.9,2.9c0,2,1.5,2.9,3.9,4c3.7,1.6,5.8,3.1,5.8,6.2
			c0,4.2-3.8,6.3-7.4,6.3c-2.3,0-4.5-0.8-5.4-1.3c-0.2-1.3-0.7-3.9-0.8-5.4l1.3-0.2c0.8,2.9,2.4,5.4,5.6,5.4c1.7,0,3.3-1.2,3.3-3.1
			c0-2-1.2-3.1-3.7-4.2c-2.9-1.4-5.8-2.8-5.8-6.3c0-3.3,2.9-5.8,7.2-5.8c1.9,0,3.5,0.4,4.5,0.6c0.1,1.1,0.4,3.9,0.7,5L461.6,92.2z"
			/>
	</g>
</g>
</svg>
